<svg width="20" height="25" viewBox="0 0 20 25" fill="none" xmlns="http://www.w3.org/2000/svg">
<rect width="20" height="25" fill="#E5E5E5"/>
<g id="Desktop" clip-path="url(#clip0_0_1)">
<rect width="1920" height="3850" transform="translate(-576 -726)" fill="#020A18"/>
<g id="Hero area">
<g id="Rectangle 53" opacity="0.1" filter="url(#filter0_b_0_1)">
<path d="M-577 -601C-577 -606.523 -572.523 -611 -567 -611H1334C1339.52 -611 1344 -606.523 1344 -601V409C1344 414.523 1339.52 419 1334 419H-567C-572.523 419 -577 414.523 -577 409V-601Z" fill="url(#paint0_linear_0_1)"/>
</g>
<g id="Group 399">
<g id="Group 398">
<g id="Frame 397">
<rect x="-36" y="-16" width="217" height="57" rx="5" fill="#3A68B8"/>
<path id="Polygon 1" d="M20 12.5L0.500001 24.1913L0.500002 0.808657L20 12.5Z" fill="white"/>
</g>
</g>
</g>
</g>
</g>
<defs>
<filter id="filter0_b_0_1" x="-777" y="-811" width="2321" height="1430" filterUnits="userSpaceOnUse" color-interpolation-filters="sRGB">
<feFlood flood-opacity="0" result="BackgroundImageFix"/>
<feGaussianBlur in="BackgroundImageFix" stdDeviation="100"/>
<feComposite in2="SourceAlpha" operator="in" result="effect1_backgroundBlur_0_1"/>
<feBlend mode="normal" in="SourceGraphic" in2="effect1_backgroundBlur_0_1" result="shape"/>
</filter>
<linearGradient id="paint0_linear_0_1" x1="383.5" y1="-1042.59" x2="383.499" y2="2069.43" gradientUnits="userSpaceOnUse">
<stop stop-color="white" stop-opacity="0.2"/>
<stop offset="1" stop-color="white" stop-opacity="0.4"/>
</linearGradient>
<clipPath id="clip0_0_1">
<rect width="1920" height="3850" fill="white" transform="translate(-576 -726)"/>
</clipPath>
</defs>
</svg>
